<?xml version="1.0" encoding="utf-8"?>
<!-- Generator: Adobe Illustrator 26.3.1, SVG Export Plug-In . SVG Version: 6.00 Build 0)  -->
<svg version="1.1" id="Слой_1" xmlns="http://www.w3.org/2000/svg" xmlns:xlink="http://www.w3.org/1999/xlink" x="0px" y="0px"
	 viewBox="0 0 336 60" style="enable-background:new 0 0 336 60;" xml:space="preserve">
<style type="text/css">
	.st0{fill-rule:evenodd;clip-rule:evenodd;fill:#263659;}
	.st1{fill:url(#SVGID_1_);}
	.st2{fill:url(#SVGID_00000030469552942885092210000006922997878633671063_);}
	.st3{fill-rule:evenodd;clip-rule:evenodd;fill:url(#SVGID_00000117635250767783582720000009235856281422655416_);}
	.st4{fill:url(#SVGID_00000013915893835378249890000012440033018173873547_);}
</style>
<g>
	<g>
		<path class="st0" d="M82.5,42.5c-3.9,0-7.2-1.3-9.9-4c-2.7-2.7-4.1-5.9-4.1-9.7s1.4-7,4.1-9.7c2.7-2.7,6.1-4,9.9-4
			c2.7,0,5.2,0.6,7.4,1.9s4,3,5.1,5.1l-4.8,2.6c-1.8-3-4.4-4.5-7.7-4.5c-2.4,0-4.3,0.8-6,2.5c-1.6,1.7-2.5,3.7-2.5,6s0.8,4.3,2.5,6
			c1.6,1.7,3.6,2.5,6,2.5c3.4,0,5.9-1.5,7.7-4.5l4.8,2.6c-1.2,2.2-2.9,3.9-5.1,5.2C87.8,41.9,85.3,42.5,82.5,42.5L82.5,42.5
			L82.5,42.5z"/>
		<path class="st0" d="M111.2,41.2c-1.6,0.9-3.3,1.3-5.1,1.3c-1.8,0-3.6-0.4-5.1-1.3c-1.6-0.9-2.8-2-3.7-3.5
			c-0.9-1.5-1.4-3.1-1.4-4.9c0-1.8,0.5-3.4,1.4-4.9c0.9-1.5,2.1-2.7,3.7-3.5c1.6-0.9,3.3-1.3,5.1-1.3c1.8,0,3.5,0.4,5.1,1.3
			c1.6,0.9,2.8,2,3.7,3.5c0.9,1.5,1.4,3.1,1.4,4.9c0,1.8-0.5,3.4-1.4,4.9C114.1,39.2,112.8,40.3,111.2,41.2L111.2,41.2L111.2,41.2z
			 M106.1,37.7c1.4,0,2.5-0.5,3.4-1.4c0.9-0.9,1.4-2.1,1.4-3.6c0-1.4-0.5-2.6-1.4-3.6c-0.9-0.9-2.1-1.4-3.4-1.4
			c-1.4,0-2.6,0.5-3.5,1.4c-0.9,0.9-1.4,2.1-1.4,3.6c0,1.4,0.5,2.6,1.4,3.6C103.6,37.2,104.7,37.7,106.1,37.7L106.1,37.7z"/>
		<polygon class="st0" points="138.5,37.9 138.5,47.4 133.9,44.9 133.9,42.4 118.1,42.4 118.1,23.9 123.3,23.9 123.3,37.9 
			130.3,37.9 130.3,23.9 135.4,23.9 135.4,37.9 138.5,37.9 138.5,37.9 138.5,37.9 138.5,37.9 138.5,37.9 138.5,37.9 		"/>
		<polygon class="st0" points="141.2,42.4 141.2,16.7 146.5,16.7 146.5,33.8 159.7,16.7 164.2,16.7 164.2,42.4 159,42.4 159,25.2 
			145.7,42.4 141.2,42.4 141.2,42.4 141.2,42.4 141.2,42.4 141.2,42.4 141.2,42.4 		"/>
		<polygon class="st0" points="166.6,42.4 166.6,23.8 171.8,23.8 171.8,30.8 179.2,30.8 179.2,23.8 184.4,23.8 184.4,42.4 
			179.2,42.4 179.2,35.2 171.8,35.2 171.8,42.4 166.6,42.4 166.6,42.4 166.6,42.4 166.6,42.4 166.6,42.4 166.6,42.4 		"/>
		<path class="st0" d="M202.3,51.5l-5.2-2.6v-5.6c-1.7-0.1-3.3-0.4-4.6-1c-1.4-0.6-2.5-1.3-3.4-2.2c-0.9-0.9-1.5-1.9-2-3.1
			c-0.5-1.1-0.7-2.4-0.7-3.7s0.2-2.6,0.7-3.7c0.5-1.1,1.1-2.2,2-3.1c0.9-0.9,2-1.6,3.4-2.2c1.4-0.6,2.9-0.9,4.6-1v-8.1l5.2,2.7v5.4
			c3.4,0.2,6,1.2,7.9,3.1c1.9,1.8,2.8,4.1,2.8,6.8c0,2.7-0.9,5-2.8,6.8c-1.9,1.8-4.5,2.9-7.9,3.1V51.5L202.3,51.5z M197.1,38.6V28.2
			c-1.7,0.1-3.1,0.6-4,1.6c-1,1-1.4,2.2-1.4,3.6c0,1.5,0.5,2.7,1.4,3.6C194,38,195.3,38.5,197.1,38.6L197.1,38.6L197.1,38.6
			L197.1,38.6L197.1,38.6z M206.3,37c0.9-1,1.4-2.2,1.4-3.6c0-1.5-0.5-2.7-1.4-3.6c-0.9-1-2.3-1.5-4-1.6v10.5
			C204,38.5,205.4,38,206.3,37L206.3,37L206.3,37L206.3,37L206.3,37z"/>
		<path class="st0" d="M228.8,42c-1.5,0.9-3.1,1.3-4.9,1.3c-1.8,0-3.4-0.4-4.9-1.3c-1.5-0.9-2.7-2-3.6-3.5c-0.9-1.5-1.3-3.1-1.3-4.9
			c0-1.8,0.4-3.4,1.3-4.9c0.9-1.5,2.1-2.7,3.6-3.5c1.5-0.9,3.1-1.3,4.9-1.3c1.8,0,3.4,0.4,4.9,1.3c1.5,0.9,2.7,2,3.6,3.5
			c0.9,1.5,1.3,3.1,1.3,4.9c0,1.8-0.4,3.4-1.3,4.9C231.4,39.9,230.3,41.1,228.8,42L228.8,42z M223.9,38.5c1.3,0,2.4-0.5,3.3-1.4
			c0.9-0.9,1.3-2.1,1.3-3.6c0-1.4-0.4-2.6-1.3-3.6c-0.9-0.9-2-1.4-3.3-1.4c-1.3,0-2.4,0.5-3.3,1.4c-0.9,0.9-1.3,2.1-1.3,3.6
			c0,1.4,0.4,2.6,1.3,3.6C221.4,38,222.5,38.5,223.9,38.5L223.9,38.5z"/>
		<path class="st0" d="M235.3,48.3V24.2h4.9v2.1c0.5-0.7,1.2-1.3,2.1-1.8c0.9-0.5,2-0.8,3.1-0.8c1.6,0,3,0.4,4.3,1.3
			c1.3,0.9,2.3,2.1,3.1,3.6c0.7,1.5,1.1,3.1,1.1,4.9c0,1.8-0.4,3.4-1.1,4.9c-0.7,1.5-1.8,2.7-3.1,3.6c-1.3,0.9-2.7,1.3-4.3,1.3
			c-1.2,0-2.2-0.3-3.1-0.8c-0.9-0.5-1.6-1.1-2.1-1.8v10.1L235.3,48.3L235.3,48.3L235.3,48.3L235.3,48.3L235.3,48.3L235.3,48.3
			L235.3,48.3z M241.1,37.2c0.8,1,1.9,1.4,3.3,1.4s2.4-0.5,3.3-1.4c0.8-1,1.3-2.2,1.3-3.7c0-1.5-0.4-2.7-1.3-3.7
			c-0.8-1-1.9-1.4-3.3-1.4s-2.4,0.5-3.3,1.4c-0.8,1-1.3,2.2-1.3,3.7C239.9,35,240.3,36.3,241.1,37.2L241.1,37.2z"/>
		<polygon class="st0" points="266.8,38.3 261.3,31.6 261.3,42.4 256.1,42.4 256.1,23.8 260.5,23.8 266.7,31.5 273,23.8 277.4,23.8 
			277.4,42.4 272.2,42.4 272.2,31.6 266.8,38.3 266.8,38.3 266.8,38.3 266.8,38.3 266.8,38.3 266.8,38.3 		"/>
		<polygon class="st0" points="283,42.5 283,21.1 275.9,21.1 275.9,15.9 295.6,15.9 295.6,21.1 288.4,21.1 288.4,42.5 283,42.5 
			283,42.5 283,42.5 283,42.5 283,42.5 283,42.5 		"/>
		<path class="st0" d="M302.1,42.5c-1.9,0-3.6-0.4-5.2-1.2c-1.5-0.8-2.8-1.9-3.7-3.4c-0.9-1.5-1.3-3.2-1.3-5.1c0-2.8,1-5.1,2.9-6.9
			c1.9-1.9,4.3-2.8,7.2-2.8c1.3,0,2.5,0.2,3.6,0.6c1.1,0.4,2.1,1,3,1.7c0.9,0.7,1.6,1.7,2.1,2.9c0.5,1.2,0.8,2.5,0.8,4
			c0,0.7,0,1.2-0.1,1.8h-14.3c0.1,1.2,0.7,2.2,1.7,2.8c1,0.7,2.2,1,3.6,1c2,0,4-0.7,5.9-2.1l1.8,4.2c-0.9,0.8-2.1,1.4-3.5,1.9
			C305.1,42.2,303.6,42.5,302.1,42.5L302.1,42.5L302.1,42.5L302.1,42.5L302.1,42.5z M301.9,27.2c-1.1,0-2.1,0.3-2.9,0.8
			c-0.9,0.5-1.5,1.4-1.7,2.4h9c-0.2-1-0.7-1.8-1.6-2.4C303.9,27.5,302.9,27.2,301.9,27.2L301.9,27.2L301.9,27.2z"/>
		<polygon class="st0" points="310.6,42.5 317.7,33.3 310.8,23.9 316.7,23.9 320.8,29.6 324.9,23.9 330.9,23.9 324,33.3 331,42.5 
			325,42.5 320.9,37 316.6,42.5 310.6,42.5 310.6,42.5 310.6,42.5 310.6,42.5 310.6,42.5 310.6,42.5 		"/>
	</g>
	
		<linearGradient id="SVGID_1_" gradientUnits="userSpaceOnUse" x1="21.7037" y1="272.219" x2="32.1984" y2="272.219" gradientTransform="matrix(1 0 0 -1 0 302)">
		<stop  offset="0" style="stop-color:#4778EB"/>
		<stop  offset="1" style="stop-color:#2E67C2"/>
	</linearGradient>
	<path class="st1" d="M23.2,33.5c-2-2.1-2-5.4,0-7.4s5.4-2.1,7.4,0c0.9,0.9,1.4,2,1.5,3.1c0,0.4,0,0.8,0,1.2
		c-0.1,1.1-0.6,2.3-1.5,3.1C28.6,35.6,25.3,35.6,23.2,33.5L23.2,33.5L23.2,33.5z"/>
	
		<linearGradient id="SVGID_00000146483074712822530600000008574881761957388986_" gradientUnits="userSpaceOnUse" x1="8.7083" y1="272.0729" x2="45.3927" y2="272.0729" gradientTransform="matrix(1 0 0 -1 0 302)">
		<stop  offset="0" style="stop-color:#4778EB"/>
		<stop  offset="1" style="stop-color:#2E67C2"/>
	</linearGradient>
	<path style="fill:url(#SVGID_00000146483074712822530600000008574881761957388986_);" d="M44.9,25.8L38,27.7
		c0.7,3.6-0.3,7.4-3.1,10.2c-4.4,4.4-11.5,4.4-15.8,0c-4.4-4.4-4.4-11.5,0-15.9c2.8-2.8,6.7-3.8,10.3-3l1.7-7
		c-5.9-1.3-12.4,0.3-17,4.9c-7.2,7.2-7.2,18.8,0,26c7.2,7.2,18.8,7.2,25.9,0C44.7,38.3,46.3,31.8,44.9,25.8L44.9,25.8L44.9,25.8z"/>
	
		<linearGradient id="SVGID_00000036953651185462818190000012673159437602823584_" gradientUnits="userSpaceOnUse" x1="33.137" y1="284.7894" x2="46.6839" y2="284.7894" gradientTransform="matrix(1 0 0 -1 0 302)">
		<stop  offset="0" style="stop-color:#4778EB"/>
		<stop  offset="1" style="stop-color:#2E67C2"/>
	</linearGradient>
	
		<polygon style="fill-rule:evenodd;clip-rule:evenodd;fill:url(#SVGID_00000036953651185462818190000012673159437602823584_);" points="
		45.2,20.7 33.1,24 36.1,11.6 46.7,10.4 45.2,20.7 45.2,20.7 	"/>
	
		<linearGradient id="SVGID_00000183933973302596625740000012924437239311286405_" gradientUnits="userSpaceOnUse" x1="3.8721" y1="271.9167" x2="50.0302" y2="271.9167" gradientTransform="matrix(1 0 0 -1 0 302)">
		<stop  offset="0" style="stop-color:#4778EB"/>
		<stop  offset="1" style="stop-color:#2E67C2"/>
	</linearGradient>
	<path style="fill:url(#SVGID_00000183933973302596625740000012924437239311286405_);" d="M34.5,8.3c-2.7-1-5.7-1.4-8.8-1.2
		C13.9,7.7,4.4,17.2,3.9,29C3.3,42.6,14.5,53.8,28.1,53.1c12-0.6,21.6-10.5,21.9-22.5c0.1-3.2-0.5-6.3-1.6-9.1
		c-0.1-0.2-0.3-0.3-0.5-0.3l0,0c-0.3,0.1-0.4,0.3-0.3,0.6c1.1,2.7,1.6,5.6,1.5,8.6c-0.2,11.6-9.4,21.1-21,21.7
		C15,52.9,4.2,42.2,4.8,29.1C5.3,17.5,14.9,8.1,26.5,7.9c2.7-0.1,5.3,0.4,7.7,1.2c0.3,0.1,0.5-0.1,0.6-0.3l0,0
		C34.9,8.6,34.7,8.4,34.5,8.3L34.5,8.3z"/>
</g>
</svg>
